<?xml version="1.0" encoding="UTF-8" standalone="no"?>
<!DOCTYPE svg PUBLIC "-//W3C//DTD SVG 1.1//EN"
 "http://www.w3.org/Graphics/SVG/1.1/DTD/svg11.dtd">
<!-- Generated by graphviz version 2.47.3 (20210619.1520)
 -->
<!-- Title: dependencies Pages: 1 -->
<svg width="1006pt" height="247pt"
 viewBox="0.00 0.00 1006.00 246.80" xmlns="http://www.w3.org/2000/svg" xmlns:xlink="http://www.w3.org/1999/xlink">
<g id="graph0" class="graph" transform="scale(1 1) rotate(0) translate(4 242.8)">
<title>dependencies</title>
<polygon fill="white" stroke="transparent" points="-4,4 -4,-242.8 1002,-242.8 1002,4 -4,4"/>
<text text-anchor="middle" x="499" y="-8.2" font-family="sans-serif" font-size="14.00">dependencies</text>
<g id="clust1" class="cluster">
<title>cluster_AppModule</title>
<polygon fill="none" stroke="black" stroke-dasharray="1,5" points="8,-32.8 8,-230.8 990,-230.8 990,-32.8 8,-32.8"/>
</g>
<g id="clust11" class="cluster">
<title>cluster_AppModule_bootstrap</title>
<polygon fill="none" stroke="black" points="451,-170.8 451,-222.8 575,-222.8 575,-170.8 451,-170.8"/>
</g>
<g id="clust9" class="cluster">
<title>cluster_AppModule_imports</title>
<polygon fill="none" stroke="black" points="838,-40.8 838,-92.8 982,-92.8 982,-40.8 838,-40.8"/>
</g>
<g id="clust2" class="cluster">
<title>cluster_AppModule_declarations</title>
<polygon fill="none" stroke="black" points="16,-40.8 16,-92.8 830,-92.8 830,-40.8 16,-40.8"/>
</g>
<!-- AppComponent -->
<g id="node1" class="node">
<title>AppComponent</title>
<polygon fill="#ffffb3" stroke="black" points="821.94,-84.8 716.06,-84.8 716.06,-48.8 821.94,-48.8 821.94,-84.8"/>
<text text-anchor="middle" x="769" y="-62.6" font-family="Times,serif" font-size="14.00">AppComponent</text>
</g>
<!-- AppModule -->
<g id="node7" class="node">
<title>AppModule</title>
<polygon fill="#8dd3c7" stroke="black" points="554.66,-149.8 551.66,-153.8 530.66,-153.8 527.66,-149.8 471.34,-149.8 471.34,-113.8 554.66,-113.8 554.66,-149.8"/>
<text text-anchor="middle" x="513" y="-127.6" font-family="Times,serif" font-size="14.00">AppModule</text>
</g>
<!-- AppComponent&#45;&gt;AppModule -->
<g id="edge1" class="edge">
<title>AppComponent&#45;&gt;AppModule</title>
<path fill="none" stroke="black" d="M769,-84.91C769,-104.14 769,-131.8 769,-131.8 769,-131.8 564.7,-131.8 564.7,-131.8"/>
<polygon fill="black" stroke="black" points="564.7,-128.3 554.7,-131.8 564.7,-135.3 564.7,-128.3"/>
</g>
<!-- CardComponent -->
<g id="node2" class="node">
<title>CardComponent</title>
<polygon fill="#ffffb3" stroke="black" points="698.05,-84.8 589.95,-84.8 589.95,-48.8 698.05,-48.8 698.05,-84.8"/>
<text text-anchor="middle" x="644" y="-62.6" font-family="Times,serif" font-size="14.00">CardComponent</text>
</g>
<!-- CardComponent&#45;&gt;AppModule -->
<g id="edge2" class="edge">
<title>CardComponent&#45;&gt;AppModule</title>
<path fill="none" stroke="black" d="M644,-84.83C644,-101.2 644,-122.8 644,-122.8 644,-122.8 564.81,-122.8 564.81,-122.8"/>
<polygon fill="black" stroke="black" points="564.81,-119.3 554.81,-122.8 564.81,-126.3 564.81,-119.3"/>
</g>
<!-- FooterComponent -->
<g id="node3" class="node">
<title>FooterComponent</title>
<polygon fill="#ffffb3" stroke="black" points="571.88,-84.8 454.12,-84.8 454.12,-48.8 571.88,-48.8 571.88,-84.8"/>
<text text-anchor="middle" x="513" y="-62.6" font-family="Times,serif" font-size="14.00">FooterComponent</text>
</g>
<!-- FooterComponent&#45;&gt;AppModule -->
<g id="edge3" class="edge">
<title>FooterComponent&#45;&gt;AppModule</title>
<path fill="none" stroke="black" d="M513,-84.91C513,-84.91 513,-103.79 513,-103.79"/>
<polygon fill="black" stroke="black" points="509.5,-103.79 513,-113.79 516.5,-103.79 509.5,-103.79"/>
</g>
<!-- HomepageComponent -->
<g id="node4" class="node">
<title>HomepageComponent</title>
<polygon fill="#ffffb3" stroke="black" points="435.97,-84.8 294.03,-84.8 294.03,-48.8 435.97,-48.8 435.97,-84.8"/>
<text text-anchor="middle" x="365" y="-62.6" font-family="Times,serif" font-size="14.00">HomepageComponent</text>
</g>
<!-- HomepageComponent&#45;&gt;AppModule -->
<g id="edge4" class="edge">
<title>HomepageComponent&#45;&gt;AppModule</title>
<path fill="none" stroke="black" d="M365,-84.83C365,-101.2 365,-122.8 365,-122.8 365,-122.8 460.99,-122.8 460.99,-122.8"/>
<polygon fill="black" stroke="black" points="460.99,-126.3 470.99,-122.8 460.98,-119.3 460.99,-126.3"/>
</g>
<!-- NavbarComponent -->
<g id="node5" class="node">
<title>NavbarComponent</title>
<polygon fill="#ffffb3" stroke="black" points="276.03,-84.8 153.97,-84.8 153.97,-48.8 276.03,-48.8 276.03,-84.8"/>
<text text-anchor="middle" x="215" y="-62.6" font-family="Times,serif" font-size="14.00">NavbarComponent</text>
</g>
<!-- NavbarComponent&#45;&gt;AppModule -->
<g id="edge5" class="edge">
<title>NavbarComponent&#45;&gt;AppModule</title>
<path fill="none" stroke="black" d="M215,-84.91C215,-104.14 215,-131.8 215,-131.8 215,-131.8 461.25,-131.8 461.25,-131.8"/>
<polygon fill="black" stroke="black" points="461.25,-135.3 471.25,-131.8 461.25,-128.3 461.25,-135.3"/>
</g>
<!-- ViewComponent -->
<g id="node6" class="node">
<title>ViewComponent</title>
<polygon fill="#ffffb3" stroke="black" points="135.65,-84.8 24.35,-84.8 24.35,-48.8 135.65,-48.8 135.65,-84.8"/>
<text text-anchor="middle" x="80" y="-62.6" font-family="Times,serif" font-size="14.00">ViewComponent</text>
</g>
<!-- ViewComponent&#45;&gt;AppModule -->
<g id="edge6" class="edge">
<title>ViewComponent&#45;&gt;AppModule</title>
<path fill="none" stroke="black" d="M80,-85.09C80,-107.01 80,-140.8 80,-140.8 80,-140.8 461.09,-140.8 461.09,-140.8"/>
<polygon fill="black" stroke="black" points="461.09,-144.3 471.09,-140.8 461.09,-137.3 461.09,-144.3"/>
</g>
<!-- AppComponent  -->
<g id="node9" class="node">
<title>AppComponent </title>
<polygon fill="#80b1d3" stroke="black" points="567.44,-214.8 458.56,-214.8 458.56,-178.8 567.44,-178.8 567.44,-214.8"/>
<text text-anchor="middle" x="513" y="-192.6" font-family="Times,serif" font-size="14.00">AppComponent </text>
</g>
<!-- AppModule&#45;&gt;AppComponent  -->
<g id="edge8" class="edge">
<title>AppModule&#45;&gt;AppComponent </title>
<path fill="none" stroke="black" stroke-dasharray="1,5" d="M513,-149.91C513,-149.91 513,-168.79 513,-168.79"/>
<polygon fill="black" stroke="black" points="509.5,-168.79 513,-178.79 516.5,-168.79 509.5,-168.79"/>
</g>
<!-- AppRoutingModule -->
<g id="node8" class="node">
<title>AppRoutingModule</title>
<polygon fill="#8dd3c7" stroke="black" points="974.27,-84.8 971.27,-88.8 950.27,-88.8 947.27,-84.8 845.73,-84.8 845.73,-48.8 974.27,-48.8 974.27,-84.8"/>
<text text-anchor="middle" x="910" y="-62.6" font-family="Times,serif" font-size="14.00">AppRoutingModule</text>
</g>
<!-- AppRoutingModule&#45;&gt;AppModule -->
<g id="edge7" class="edge">
<title>AppRoutingModule&#45;&gt;AppModule</title>
<path fill="none" stroke="black" d="M910,-85.09C910,-107.01 910,-140.8 910,-140.8 910,-140.8 564.74,-140.8 564.74,-140.8"/>
<polygon fill="black" stroke="black" points="564.74,-137.3 554.74,-140.8 564.74,-144.3 564.74,-137.3"/>
</g>
</g>
</svg>
