<?xml version="1.0" encoding="UTF-8" standalone="no"?>
<!DOCTYPE svg PUBLIC "-//W3C//DTD SVG 1.1//EN"
 "http://www.w3.org/Graphics/SVG/1.1/DTD/svg11.dtd">
<!-- Generated by graphviz version 2.47.3 (20210619.1520)
 -->
<!-- Title: dependencies Pages: 1 -->
<svg width="1006pt" height="247pt"
 viewBox="0.00 0.00 1006.00 246.80" xmlns="http://www.w3.org/2000/svg" xmlns:xlink="http://www.w3.org/1999/xlink">
<g id="graph0" class="graph" transform="scale(1 1) rotate(0) translate(4 242.8)">
<title>dependencies</title>
<polygon fill="white" stroke="transparent" points="-4,4 -4,-242.8 1002,-242.8 1002,4 -4,4"/>
<text text-anchor="middle" x="499" y="-8.2" font-family="sans-serif" font-size="14.00">dependencies</text>
<g id="clust1" class="cluster">
<title>cluster_AppModule</title>
<polygon fill="none" stroke="black" stroke-dasharray="1,5" points="8,-32.8 8,-230.8 990,-230.8 990,-32.8 8,-32.8"/>
</g>
<g id="clust2" class="cluster">
<title>cluster_AppModule_declarations</title>
<polygon fill="none" stroke="black" points="168,-40.8 168,-92.8 982,-92.8 982,-40.8 168,-40.8"/>
</g>
<g id="clust9" class="cluster">
<title>cluster_AppModule_imports</title>
<polygon fill="none" stroke="black" points="16,-40.8 16,-92.8 160,-92.8 160,-40.8 16,-40.8"/>
</g>
<g id="clust11" class="cluster">
<title>cluster_AppModule_bootstrap</title>
<polygon fill="none" stroke="black" points="455,-170.8 455,-222.8 579,-222.8 579,-170.8 455,-170.8"/>
</g>
<!-- AppComponent -->
<g id="node1" class="node">
<title>AppComponent</title>
<polygon fill="#ffffb3" stroke="black" points="973.94,-84.8 868.06,-84.8 868.06,-48.8 973.94,-48.8 973.94,-84.8"/>
<text text-anchor="middle" x="921" y="-62.6" font-family="Times,serif" font-size="14.00">AppComponent</text>
</g>
<!-- AppModule -->
<g id="node7" class="node">
<title>AppModule</title>
<polygon fill="#8dd3c7" stroke="black" points="558.66,-149.8 555.66,-153.8 534.66,-153.8 531.66,-149.8 475.34,-149.8 475.34,-113.8 558.66,-113.8 558.66,-149.8"/>
<text text-anchor="middle" x="517" y="-127.6" font-family="Times,serif" font-size="14.00">AppModule</text>
</g>
<!-- AppComponent&#45;&gt;AppModule -->
<g id="edge1" class="edge">
<title>AppComponent&#45;&gt;AppModule</title>
<path fill="none" stroke="black" d="M921,-85.09C921,-107.01 921,-140.8 921,-140.8 921,-140.8 568.71,-140.8 568.71,-140.8"/>
<polygon fill="black" stroke="black" points="568.71,-137.3 558.71,-140.8 568.71,-144.3 568.71,-137.3"/>
</g>
<!-- CardComponent -->
<g id="node2" class="node">
<title>CardComponent</title>
<polygon fill="#ffffb3" stroke="black" points="850.05,-84.8 741.95,-84.8 741.95,-48.8 850.05,-48.8 850.05,-84.8"/>
<text text-anchor="middle" x="796" y="-62.6" font-family="Times,serif" font-size="14.00">CardComponent</text>
</g>
<!-- CardComponent&#45;&gt;AppModule -->
<g id="edge2" class="edge">
<title>CardComponent&#45;&gt;AppModule</title>
<path fill="none" stroke="black" d="M796,-84.91C796,-104.14 796,-131.8 796,-131.8 796,-131.8 568.77,-131.8 568.77,-131.8"/>
<polygon fill="black" stroke="black" points="568.77,-128.3 558.77,-131.8 568.77,-135.3 568.77,-128.3"/>
</g>
<!-- FooterComponent -->
<g id="node3" class="node">
<title>FooterComponent</title>
<polygon fill="#ffffb3" stroke="black" points="723.88,-84.8 606.12,-84.8 606.12,-48.8 723.88,-48.8 723.88,-84.8"/>
<text text-anchor="middle" x="665" y="-62.6" font-family="Times,serif" font-size="14.00">FooterComponent</text>
</g>
<!-- FooterComponent&#45;&gt;AppModule -->
<g id="edge3" class="edge">
<title>FooterComponent&#45;&gt;AppModule</title>
<path fill="none" stroke="black" d="M665,-84.83C665,-101.2 665,-122.8 665,-122.8 665,-122.8 569.01,-122.8 569.01,-122.8"/>
<polygon fill="black" stroke="black" points="569.02,-119.3 559.01,-122.8 569.01,-126.3 569.02,-119.3"/>
</g>
<!-- HomepageComponent -->
<g id="node4" class="node">
<title>HomepageComponent</title>
<polygon fill="#ffffb3" stroke="black" points="587.97,-84.8 446.03,-84.8 446.03,-48.8 587.97,-48.8 587.97,-84.8"/>
<text text-anchor="middle" x="517" y="-62.6" font-family="Times,serif" font-size="14.00">HomepageComponent</text>
</g>
<!-- HomepageComponent&#45;&gt;AppModule -->
<g id="edge4" class="edge">
<title>HomepageComponent&#45;&gt;AppModule</title>
<path fill="none" stroke="black" d="M517,-84.91C517,-84.91 517,-103.79 517,-103.79"/>
<polygon fill="black" stroke="black" points="513.5,-103.79 517,-113.79 520.5,-103.79 513.5,-103.79"/>
</g>
<!-- NavbarComponent -->
<g id="node5" class="node">
<title>NavbarComponent</title>
<polygon fill="#ffffb3" stroke="black" points="428.03,-84.8 305.97,-84.8 305.97,-48.8 428.03,-48.8 428.03,-84.8"/>
<text text-anchor="middle" x="367" y="-62.6" font-family="Times,serif" font-size="14.00">NavbarComponent</text>
</g>
<!-- NavbarComponent&#45;&gt;AppModule -->
<g id="edge5" class="edge">
<title>NavbarComponent&#45;&gt;AppModule</title>
<path fill="none" stroke="black" d="M367,-84.83C367,-101.2 367,-122.8 367,-122.8 367,-122.8 465.22,-122.8 465.22,-122.8"/>
<polygon fill="black" stroke="black" points="465.22,-126.3 475.22,-122.8 465.22,-119.3 465.22,-126.3"/>
</g>
<!-- ViewComponent -->
<g id="node6" class="node">
<title>ViewComponent</title>
<polygon fill="#ffffb3" stroke="black" points="287.65,-84.8 176.35,-84.8 176.35,-48.8 287.65,-48.8 287.65,-84.8"/>
<text text-anchor="middle" x="232" y="-62.6" font-family="Times,serif" font-size="14.00">ViewComponent</text>
</g>
<!-- ViewComponent&#45;&gt;AppModule -->
<g id="edge6" class="edge">
<title>ViewComponent&#45;&gt;AppModule</title>
<path fill="none" stroke="black" d="M232,-84.91C232,-104.14 232,-131.8 232,-131.8 232,-131.8 465.25,-131.8 465.25,-131.8"/>
<polygon fill="black" stroke="black" points="465.25,-135.3 475.25,-131.8 465.25,-128.3 465.25,-135.3"/>
</g>
<!-- AppComponent  -->
<g id="node9" class="node">
<title>AppComponent </title>
<polygon fill="#80b1d3" stroke="black" points="571.44,-214.8 462.56,-214.8 462.56,-178.8 571.44,-178.8 571.44,-214.8"/>
<text text-anchor="middle" x="517" y="-192.6" font-family="Times,serif" font-size="14.00">AppComponent </text>
</g>
<!-- AppModule&#45;&gt;AppComponent  -->
<g id="edge8" class="edge">
<title>AppModule&#45;&gt;AppComponent </title>
<path fill="none" stroke="black" stroke-dasharray="1,5" d="M517,-149.91C517,-149.91 517,-168.79 517,-168.79"/>
<polygon fill="black" stroke="black" points="513.5,-168.79 517,-178.79 520.5,-168.79 513.5,-168.79"/>
</g>
<!-- AppRoutingModule -->
<g id="node8" class="node">
<title>AppRoutingModule</title>
<polygon fill="#8dd3c7" stroke="black" points="152.27,-84.8 149.27,-88.8 128.27,-88.8 125.27,-84.8 23.73,-84.8 23.73,-48.8 152.27,-48.8 152.27,-84.8"/>
<text text-anchor="middle" x="88" y="-62.6" font-family="Times,serif" font-size="14.00">AppRoutingModule</text>
</g>
<!-- AppRoutingModule&#45;&gt;AppModule -->
<g id="edge7" class="edge">
<title>AppRoutingModule&#45;&gt;AppModule</title>
<path fill="none" stroke="black" d="M88,-85.09C88,-107.01 88,-140.8 88,-140.8 88,-140.8 465.08,-140.8 465.08,-140.8"/>
<polygon fill="black" stroke="black" points="465.08,-144.3 475.08,-140.8 465.08,-137.3 465.08,-144.3"/>
</g>
</g>
</svg>
